<?xml version="1.0" encoding="UTF-8"?>
<svg id="Layer_2" data-name="Layer 2" xmlns="http://www.w3.org/2000/svg" viewBox="0 0 241.42 58.77">
  <defs>
    <style>
      .cls-1 {
        fill: #fff;
      }
    </style>
  </defs>
  <g id="Layer_1-2" data-name="Layer 1">
    <path class="cls-1" d="M27.84,50.42h-2.67l-11.25-27.77L2.67,50.42H0L13.91,16.04l13.92,34.38ZM110.92,16.04l-13.92,34.38h2.67l11.25-27.77,11.25,27.77h2.67l-13.92-34.38ZM58.47,39.51V15.68h-2.48v23.83c0,4.65-3.78,8.43-8.43,8.43s-8.43-3.78-8.43-8.43V15.68h-2.48v23.83c0,6.01,4.89,10.91,10.91,10.91s10.91-4.89,10.91-10.91ZM88.69,50.42h-2.74l-6.63-14.43c-.25.02-.5.03-.75.03h-6.14v14.39h-2.48V15.91h8.62c5.55,0,10.06,4.51,10.06,10.06,0,4.4-2.85,8.16-6.8,9.51l6.87,14.94ZM78.57,33.54c4.18,0,7.57-3.39,7.57-7.57s-3.39-7.57-7.57-7.57h-6.14v15.15h6.14ZM140.09,27.98c-1.31-.65-2.7-.98-4.19-.98-2.17,0-3.95.64-5.34,1.92-1.39,1.28-2.09,2.82-2.09,4.63,0,2.8,1.85,5.13,5.54,6.99l1.93.97c1.66.84,2.5,1.7,2.5,2.58,0,.48-.23.9-.69,1.26s-1.07.55-1.83.55c-.7,0-1.5-.24-2.4-.72-.9-.48-1.69-1.12-2.36-1.9l-3.53,3.84c1.99,2.6,4.64,3.9,7.97,3.9,2.5,0,4.5-.68,5.99-2.04s2.24-3.05,2.24-5.08c0-1.52-.41-2.85-1.24-3.99-.83-1.13-2.34-2.25-4.55-3.34l-2.1-1.05c-.91-.45-1.48-.8-1.71-1.06-.23-.26-.35-.54-.35-.85,0-.41.18-.75.55-1.02.36-.27.87-.41,1.51-.41,1.18,0,2.48.71,3.92,2.14l3.55-3.55c-.91-1.22-2.02-2.15-3.33-2.8ZM148.34,27.59v31.19h5.69v-10.77c1.12,1.06,2.24,1.83,3.38,2.3,1.13.47,2.36.7,3.67.7,2.95,0,5.51-1.14,7.66-3.43,2.15-2.29,3.23-5.13,3.23-8.53s-1.04-6.42-3.13-8.67c-2.08-2.25-4.62-3.38-7.6-3.38-1.37,0-2.66.26-3.86.78-1.2.52-2.32,1.29-3.36,2.33v-2.52h-5.69ZM164.5,34.17c1.18,1.25,1.76,2.86,1.76,4.82s-.6,3.6-1.79,4.87c-1.2,1.27-2.67,1.91-4.42,1.91s-3.3-.63-4.49-1.88-1.78-2.89-1.78-4.92.59-3.6,1.78-4.83,2.69-1.85,4.49-1.85,3.27.63,4.45,1.88ZM187.51,27.06c.02,1.77-.61,3.52-2,5.54-.9.31-1.7.82-2.39,1.56-.81.87-1.34,1.9-1.58,3.1-1.51,1.55-3.32,3.28-5.46,5.23-.28-1.07-.43-2.23-.43-3.46,0-3.52,1.04-6.41,3.13-8.66,2.08-2.25,4.61-3.38,7.58-3.38.38,0,.77.02,1.14.06ZM199.3,37.67v12.75h-5.73v-2.41c-1.12,1.06-2.24,1.83-3.36,2.3-1.13.47-2.34.7-3.66.7-2.94,0-5.5-1.14-7.65-3.43-.27-.28-.52-.57-.74-.87,1.55-1.35,2.99-2.6,4.33-3.71.2.3.43.59.68.86,1.19,1.28,2.66,1.91,4.4,1.91s3.29-.63,4.47-1.88c1.19-1.26,1.78-2.9,1.78-4.93,0-.97-.14-1.86-.43-2.64.51-.11,1-.17,1.49-.17,1.44,0,2.87.48,4.42,1.52ZM203.75,50.42h5.69v-9.23l-.02-1.11c0-3.19.3-5.33.91-6.42.61-1.09,1.35-1.64,2.24-1.64.43,0,.99.17,1.66.5l1.78-4.93c-.81-.39-1.59-.59-2.33-.59-1.05,0-2.01.29-2.9.88-.88.59-1.59,1.45-2.12,2.58v-2.88h-4.91v22.83ZM218.88,50.42h5.73v-10.52l9.7,10.52h7.11l-11.01-11.89,9.84-10.94h-7.19l-8.44,9.41v-18.23h-5.73v31.65ZM226.9,0c-24.67,21.1-29.53,28.09-40.06,19.58,7.81,11.99-1.25,16.73-24.14,37.93,23.61-20.35,29.89-29.28,40.4-19.45-6.45-12.6-1.57-14.64,23.8-38.06Z"/>
  </g>
</svg>